<svg width="90" height="48" viewBox="0 0 90 48" fill="none" xmlns="http://www.w3.org/2000/svg">
<path fill-rule="evenodd" clip-rule="evenodd" d="M22.2621 1.73792C23.2219 0.778094 24.7781 0.778095 25.7379 1.73792L38.7185 14.7185C39.5396 15.5396 39.5396 16.8709 38.7185 17.6921C37.8974 18.5132 36.566 18.5132 35.7449 17.6921L25.7379 7.68509C24.7781 6.72526 23.2219 6.72526 22.2621 7.68509L7.68509 22.2621C6.72526 23.2219 6.72526 24.7781 7.68509 25.7379L22.2621 40.3149C23.2219 41.2747 24.7781 41.2747 25.7379 40.3149L64.3149 1.73792C65.2747 0.778094 66.8309 0.778092 67.7908 1.73792L88.3149 22.2621C89.2747 23.2219 89.2748 24.7781 88.3149 25.7379L67.7908 46.2621C66.8309 47.2219 65.2747 47.2219 64.3149 46.2621L51.3343 33.2815C50.5132 32.4604 50.5132 31.1291 51.3343 30.3079C52.1555 29.4868 53.4868 29.4868 54.3079 30.3079L64.3149 40.3149C65.2747 41.2747 66.8309 41.2747 67.7908 40.3149L82.3678 25.7379C83.3276 24.7781 83.3276 23.2219 82.3678 22.2621L67.7908 7.68509C66.8309 6.72526 65.2747 6.72526 64.3149 7.68509L25.7379 46.2621C24.7781 47.2219 23.2219 47.2219 22.2621 46.2621L1.73792 25.7379C0.778094 24.7781 0.778094 23.2219 1.73792 22.2621L22.2621 1.73792Z" fill="url(#paint0_linear_102_50)"/>
<defs>
<linearGradient id="paint0_linear_102_50" x1="-0.261964" y1="5.5" x2="81.5" y2="40.5" gradientUnits="userSpaceOnUse">
<stop stop-color="#7B61FF"/>
<stop offset="1" stop-color="#5FCEFD"/>
</linearGradient>
</defs>
</svg>
