<svg width="42" height="56" viewBox="0 0 42 56" fill="none" xmlns="http://www.w3.org/2000/svg">
<path d="M1.53125 10.4772C1.53125 4.69088 6.22212 0 12.0086 0H29.9864C35.7728 0 40.4637 4.69088 40.4637 10.4772C40.4637 14.1413 38.5829 17.3661 35.734 19.2387C38.5829 21.1115 40.4637 24.3362 40.4637 28.0002C40.4637 33.7867 35.7728 38.4776 29.9864 38.4776H29.7589C27.0461 38.4776 24.5742 37.4466 22.7135 35.7551V45.4089C22.7135 51.2725 17.9 56 12.065 56C6.293 56 1.53125 51.3235 1.53125 45.5226C1.53125 41.8588 3.41195 38.6342 6.26062 36.7615C3.41173 34.8888 1.53125 31.6641 1.53125 28.0002C1.53125 24.3362 3.41206 21.1115 6.26084 19.2387C3.41217 17.3661 1.53125 14.1413 1.53125 10.4772ZM19.2815 20.9548H12.0086C8.11748 20.9548 4.96322 24.1092 4.96322 28.0002C4.96322 31.8763 8.0932 35.0212 11.9635 35.0455L12.0086 35.0454H19.2815V20.9548ZM22.7135 28.0002C22.7135 31.8912 25.8677 35.0456 29.7589 35.0456H29.9864C33.8775 35.0456 37.0317 31.8912 37.0317 28.0002C37.0317 24.1092 33.8775 20.9548 29.9864 20.9548H29.7589C25.8677 20.9548 22.7135 24.1092 22.7135 28.0002ZM12.0086 38.4776L11.9635 38.4775C8.0932 38.5016 4.96322 41.6466 4.96322 45.5226C4.96322 49.3994 8.1597 52.568 12.065 52.568C16.0334 52.568 19.2815 49.3485 19.2815 45.4089V38.4776H12.0086V38.4776ZM12.0086 3.43197C8.11748 3.43197 4.96322 6.58634 4.96322 10.4772C4.96322 14.3684 8.11759 17.5226 12.0086 17.5226H19.2815V3.43186H12.0086V3.43197ZM22.7135 17.5226H29.9864C33.8775 17.5226 37.0317 14.3684 37.0317 10.4772C37.0317 6.58623 33.8775 3.43197 29.9864 3.43197H22.7135V17.5226Z" fill="#EEEEEE"/>
</svg>
