<svg width="56" height="56" viewBox="0 0 56 56" fill="none" xmlns="http://www.w3.org/2000/svg">
<path d="M27.9895 5.25C27.3508 5.25 26.712 5.4075 26.1608 5.7225L8.82 15.7325C7.7 16.38 7 17.605 7 18.9V37.065C7 38.3775 7.7 39.585 8.82 40.2325L13.37 42.8575C15.575 43.9425 16.3625 43.9425 17.36 43.9425C20.6325 43.9425 22.505 41.965 22.505 38.535V19.7925C22.505 19.6579 22.4515 19.5288 22.3564 19.4336C22.2612 19.3385 22.1321 19.285 21.9975 19.285H19.81C19.7431 19.2841 19.6767 19.2965 19.6147 19.3217C19.5527 19.3469 19.4964 19.3842 19.449 19.4315C19.4017 19.4789 19.3644 19.5352 19.3392 19.5972C19.314 19.6592 19.3016 19.7256 19.3025 19.7925V38.5175C19.3025 40.0575 17.71 41.5625 15.1375 40.285L10.3775 37.5375C10.2921 37.4918 10.2209 37.4236 10.1716 37.3403C10.1222 37.257 10.0966 37.1618 10.0975 37.065V18.9175C10.0975 18.7075 10.2025 18.5325 10.3775 18.4275L27.72 8.4175C27.8012 8.36617 27.8952 8.33893 27.9912 8.33893C28.0873 8.33893 28.1813 8.36617 28.2625 8.4175L45.605 18.4275C45.78 18.5325 45.885 18.7075 45.885 18.9V37.065C45.885 37.2575 45.78 37.45 45.6225 37.5375L28.2625 47.565C28.1785 47.608 28.0856 47.6304 27.9912 47.6304C27.8969 47.6304 27.804 47.608 27.72 47.565L23.2575 44.9225C23.1976 44.8784 23.1266 44.8518 23.0524 44.8456C22.9783 44.8395 22.9039 44.8539 22.8375 44.8875C21.595 45.5875 21.3675 45.675 20.2125 46.0775C19.9325 46.165 19.495 46.34 20.37 46.83L26.1625 50.26C26.7225 50.575 27.3525 50.75 27.9825 50.75C28.63 50.75 29.26 50.575 29.82 50.26L47.18 40.2325C48.3 39.585 49 38.3775 49 37.065V18.9175C49 17.605 48.3 16.3975 47.18 15.75L29.82 5.7225C29.267 5.4075 28.63 5.25 27.9895 5.25V5.25ZM32.655 19.2605C27.7025 19.2605 24.745 21.3605 24.745 24.8605C24.745 28.658 27.685 29.7045 32.445 30.177C38.1325 30.737 38.57 31.5805 38.57 32.7005C38.57 34.6255 37.0125 35.448 33.355 35.448C28.7525 35.448 27.7375 34.2913 27.405 32.0163C27.388 31.8988 27.329 31.7914 27.2389 31.7142C27.1488 31.6369 27.0337 31.595 26.915 31.5963H24.6575C24.5275 31.5963 24.4029 31.6479 24.311 31.7398C24.2191 31.8317 24.1675 31.9563 24.1675 32.0862C24.1675 35.0087 25.76 38.4913 33.355 38.4913C38.85 38.4913 42 36.3212 42 32.5412C42 28.7962 39.4625 27.7988 34.1425 27.0813C28.735 26.3813 28.1925 26.0138 28.1925 24.7538C28.1925 23.7038 28.665 22.3213 32.655 22.3213C36.2075 22.3213 37.5375 23.0912 38.08 25.4887C38.1325 25.7162 38.325 25.8913 38.57 25.8913H40.8275C40.9675 25.8913 41.09 25.8212 41.195 25.7162C41.2426 25.6651 41.2783 25.6041 41.2995 25.5375C41.3207 25.4709 41.3268 25.4005 41.3175 25.3313C40.9675 21.2013 38.22 19.2588 32.655 19.2588V19.2605Z" fill="#EEEEEE"/>
</svg>
