<svg width="56" height="56" viewBox="0 0 56 56" fill="none" xmlns="http://www.w3.org/2000/svg">
<g clip-path="url(#clip0_335_57)">
<path d="M41.5608 52.5088C41.3525 52.619 41.37 52.654 41.5695 52.5525C41.631 52.5274 41.6873 52.4912 41.7358 52.4458C41.7358 52.409 41.7358 52.409 41.5608 52.5088V52.5088ZM41.9808 52.2813C41.881 52.3635 41.881 52.3635 42 52.3093C42.044 52.2887 42.0842 52.2609 42.119 52.227C42.119 52.1798 42.091 52.1903 41.9808 52.2813V52.2813ZM42.2538 52.1168C42.154 52.199 42.154 52.199 42.273 52.1448C42.3172 52.1237 42.3574 52.0953 42.392 52.0608C42.392 52.017 42.364 52.0258 42.2538 52.1168ZM42.5302 51.954C42.4305 52.0363 42.4305 52.0363 42.546 51.9803C42.6108 51.9453 42.665 51.9085 42.665 51.898C42.665 51.8543 42.637 51.863 42.5302 51.954ZM42.903 51.7073C42.7123 51.835 42.6457 51.9173 42.8207 51.8263C42.938 51.7545 43.1375 51.597 43.1025 51.597C43.0272 51.625 42.9642 51.6723 42.9012 51.7073H42.903ZM26.1678 0.019256C26.04 0.028006 25.6567 0.063006 25.3207 0.091006C17.3618 0.812006 9.9155 5.09601 5.19575 11.6953C2.58749 15.3147 0.892077 19.5106 0.25375 23.926C0.028 25.466 0 25.921 0 28.0088C0 30.0948 0.028 30.5428 0.25375 32.0828C1.778 42.602 9.261 51.4325 19.404 54.705C21.2293 55.2878 23.142 55.6903 25.3207 55.937C26.1677 56.028 29.8305 56.028 30.6775 55.937C34.4435 55.517 37.6233 54.5878 40.7698 52.983C41.2528 52.738 41.3437 52.6733 41.279 52.619C39.7441 50.59 38.2221 48.5512 36.7133 46.5028L32.2385 40.46L26.6332 32.1563C24.7688 29.376 22.8851 26.6086 20.9825 23.8543C20.9632 23.8543 20.9387 27.545 20.9282 32.046C20.909 39.9298 20.909 40.25 20.8092 40.432C20.7136 40.6519 20.5422 40.8301 20.3262 40.9343C20.153 41.0165 19.9973 41.034 19.1695 41.034H18.2228L17.976 40.88C17.8215 40.7809 17.6959 40.6426 17.612 40.4793L17.493 40.2325L17.5018 29.2583L17.521 18.284L17.6943 18.0653C17.8049 17.9308 17.9411 17.8195 18.095 17.738C18.3243 17.6278 18.4153 17.6103 19.362 17.6103C20.4733 17.6103 20.657 17.654 20.9492 17.9743C23.2199 21.3515 25.4711 24.7419 27.7025 28.1453C31.3407 33.6613 36.3073 41.188 38.7485 44.8805L43.1883 51.5988L43.407 51.4535C45.5407 50.0356 47.4742 48.3375 49.1558 46.4048C52.683 42.3677 54.9717 37.3994 55.748 32.095C55.9738 30.555 56.0017 30.0983 56.0017 28.0123C56.0017 25.9245 55.9738 25.4783 55.748 23.9383C54.2238 13.419 46.7408 4.58851 36.5978 1.31426C34.7021 0.713868 32.751 0.305237 30.7737 0.094506C30.2435 0.040256 26.6245 -0.024494 26.1695 0.022756L26.1678 0.019256ZM37.625 16.954C37.7552 17.0179 37.8713 17.1072 37.9666 17.2166C38.0618 17.326 38.1343 17.4533 38.1797 17.591C38.227 17.738 38.2357 20.7813 38.227 27.636L38.2078 37.478L36.477 34.818L34.7358 32.1563V25.011C34.7358 20.3788 34.755 17.7818 34.7795 17.654C34.8652 17.3611 35.0617 17.1131 35.3273 16.9628C35.5443 16.8525 35.6283 16.8438 36.4945 16.8438C37.3048 16.8438 37.4413 16.8525 37.6233 16.954H37.625Z" fill="#EEEEEE"/>
</g>
<defs>
<clipPath id="clip0_335_57">
<rect width="56" height="56" fill="white"/>
</clipPath>
</defs>
</svg>
