<svg width="56" height="56" viewBox="0 0 56 56" fill="none" xmlns="http://www.w3.org/2000/svg">
<g clip-path="url(#clip0_335_55)">
<path d="M56 27.2743C56 23.5643 51.3543 20.048 44.2307 17.8687C45.8757 10.6097 45.1453 4.83233 41.9253 2.98199C41.1451 2.54501 40.262 2.32505 39.368 2.34499V4.88833C39.893 4.88833 40.3153 4.99333 40.67 5.18699C42.2217 6.07833 42.896 9.46633 42.371 13.8273C42.245 14.9007 42.0397 16.03 41.7877 17.1827C39.4022 16.6078 36.981 16.1923 34.5403 15.939C33.0863 13.933 31.5 12.0263 29.792 10.2317C33.5137 6.77366 37.0067 4.87899 39.382 4.87899V2.33333C36.2413 2.33333 32.1323 4.57099 27.9767 8.45133C23.8233 4.59666 19.712 2.37999 16.5737 2.37999V4.92333C18.9373 4.92333 22.442 6.80866 26.1637 10.2433C24.5653 11.9233 22.967 13.8273 21.448 15.939C19.0023 16.1895 16.5768 16.609 14.189 17.1943C13.9253 16.0533 13.7317 14.9473 13.594 13.8857C13.0573 9.52233 13.72 6.13433 15.2623 5.23366C15.603 5.02833 16.0487 4.93499 16.5737 4.93499V2.39166C15.617 2.39166 14.7467 2.59699 13.9953 3.02866C10.787 4.87899 10.0683 10.6423 11.7227 17.8803C4.62233 20.0737 0 23.576 0 27.2743C0 30.9843 4.64567 34.5007 11.7693 36.6777C10.1243 43.939 10.8547 49.7163 14.0747 51.5643C14.8167 51.9983 15.6847 52.2037 16.6413 52.2037C19.782 52.2037 23.891 49.966 28.0467 46.0857C32.2 49.9427 36.309 52.157 39.4497 52.157C40.3506 52.176 41.2404 51.9554 42.028 51.5177C45.2363 49.6697 45.955 43.9063 44.3007 36.6683C51.3777 34.489 56 30.9727 56 27.2743ZM41.1367 19.6607C40.6933 21.1863 40.1794 22.6906 39.5967 24.1687C38.6427 22.3131 37.5953 20.5071 36.4583 18.7577C38.08 18.998 39.6433 19.2943 41.139 19.6607H41.1367ZM35.91 31.8173C35.021 33.3573 34.1063 34.8203 33.159 36.1783C29.7343 36.4802 26.2898 36.4841 22.8643 36.19C20.8995 33.3834 19.1813 30.4121 17.7287 27.3093C19.179 24.1992 20.89 21.2175 22.8433 18.396C26.2672 18.0935 29.7109 18.0888 33.1357 18.382C34.083 19.74 35.0093 21.1913 35.8983 22.722C36.7663 24.2153 37.555 25.732 38.2737 27.2627C37.547 28.8119 36.7585 30.3313 35.91 31.8173V31.8173ZM39.5967 30.3333C40.2127 31.8617 40.74 33.3923 41.1717 34.8763C39.6783 35.2427 38.101 35.5507 36.47 35.7887C37.6022 34.0233 38.6457 32.2026 39.5967 30.3333V30.3333ZM28.0233 42.5133C26.9617 41.4167 25.9 40.1963 24.85 38.8593C25.8767 38.906 26.9267 38.941 27.9883 38.941C29.0617 38.941 30.1233 38.9177 31.1617 38.8593C30.135 40.1963 29.0733 41.4167 28.0233 42.5133ZM19.53 35.7887C17.9567 35.5607 16.3948 35.2602 14.8493 34.888C15.2717 33.4157 15.7967 31.8967 16.3893 30.38C16.8583 31.29 17.3507 32.2047 17.8873 33.1193C18.424 34.0317 18.97 34.923 19.53 35.7887ZM27.965 12.0353C29.0267 13.132 30.0883 14.3523 31.1383 15.6893C30.1117 15.6427 29.0617 15.6077 28 15.6077C26.9267 15.6077 25.865 15.631 24.8267 15.6893C25.8533 14.3523 26.915 13.132 27.965 12.0353ZM19.5183 18.76C18.3864 20.5215 17.3428 22.3383 16.3917 24.2037C15.7925 22.7161 15.2669 21.1999 14.8167 19.6607C16.31 19.306 17.8873 18.998 19.5183 18.76ZM9.18867 33.0493C5.14733 31.3273 2.534 29.0663 2.534 27.2743C2.534 25.4823 5.14733 23.2097 9.18867 21.4993C10.1687 21.077 11.242 20.699 12.3503 20.3467C13.0013 22.582 13.8577 24.9107 14.917 27.2977C13.9169 29.5428 13.071 31.8534 12.3853 34.2137C11.3014 33.878 10.2345 33.4895 9.18867 33.0493V33.0493ZM15.33 49.3593C13.7783 48.4727 13.104 45.08 13.629 40.7213C13.755 39.648 13.9603 38.5163 14.2123 37.3637C16.4477 37.912 18.8907 38.3343 21.4597 38.6097C22.9137 40.6156 24.5 42.5223 26.208 44.317C22.4863 47.775 18.9933 49.6697 16.618 49.6697C16.1699 49.6745 15.7274 49.5688 15.33 49.3617V49.3593ZM42.406 40.663C42.9427 45.024 42.28 48.4143 40.7377 49.315C40.397 49.5203 39.9513 49.6113 39.4263 49.6113C37.0627 49.6113 33.558 47.7283 29.8363 44.2913C31.4347 42.616 33.033 40.7097 34.552 38.598C36.9977 38.3475 39.4232 37.928 41.811 37.3427C42.0747 38.4953 42.2777 39.6013 42.406 40.663V40.663ZM46.7997 33.0493C45.8197 33.4717 44.7463 33.8497 43.638 34.202C42.9403 31.8297 42.0828 29.5074 41.0713 27.251C42.1213 24.878 42.9637 22.561 43.603 20.335C44.7347 20.6873 45.8057 21.077 46.8113 21.4993C50.8527 23.2213 53.466 25.4823 53.466 27.2743C53.4543 29.0663 50.841 31.339 46.7997 33.0493V33.0493Z" fill="#EEEEEE"/>
<path d="M27.9883 32.4917C29.372 32.4917 30.6991 31.942 31.6775 30.9636C32.656 29.9851 33.2057 28.6581 33.2057 27.2743C33.2057 25.8906 32.656 24.5636 31.6775 23.5851C30.6991 22.6067 29.372 22.057 27.9883 22.057C26.6046 22.057 25.2776 22.6067 24.2991 23.5851C23.3207 24.5636 22.771 25.8906 22.771 27.2743C22.771 28.6581 23.3207 29.9851 24.2991 30.9636C25.2776 31.942 26.6046 32.4917 27.9883 32.4917V32.4917Z" fill="#EEEEEE"/>
</g>
<defs>
<clipPath id="clip0_335_55">
<rect width="56" height="56" fill="white"/>
</clipPath>
</defs>
</svg>
